RBDS08runT25_grf
version=1
nRows=15
nColumns=19
inDegrees=no
endheader
time	ground_force_r_vx	ground_force_r_vy	ground_force_r_vz	ground_force_r_px	ground_force_r_py	ground_force_r_pz	ground_force_r_mx	ground_force_r_my	ground_force_r_mz	ground_force_l_vx	ground_force_l_vy	ground_force_l_vz	ground_force_l_px	ground_force_l_py	ground_force_l_pz	ground_force_l_mx	ground_force_l_my	ground_force_l_mz
     14.99900000	      0.00000000	      0.00000000	      0.00000000	      0.00000000	      0.00000000	      0.00000000	      0.00000000	      0.00000000	      0.00000000	     36.66812752	   1181.13578821	     68.13429877	      2.03728968	      0.00000000	      0.96587914	      0.00000000	     10.50258990	      0.00000000
     15.00000000	      0.00000000	      0.00000000	      0.00000000	      0.00000000	      0.00000000	      0.00000000	      0.00000000	      0.00000000	      0.00000000	     38.54201511	   1170.44602421	     67.23361399	      2.03563675	      0.00000000	      0.96598953	      0.00000000	     10.46218666	      0.00000000
     15.00100000	      0.00000000	      0.00000000	      0.00000000	      0.00000000	      0.00000000	      0.00000000	      0.00000000	      0.00000000	      0.00000000	     40.42224081	   1159.64933856	     66.20675724	      2.03394824	      0.00000000	      0.96611975	      0.00000000	     10.40908393	      0.00000000
     15.00200000	      0.00000000	      0.00000000	      0.00000000	      0.00000000	      0.00000000	      0.00000000	      0.00000000	      0.00000000	      0.00000000	     42.30246651	   1148.85265292	     65.17990049	      2.03225974	      0.00000000	      0.96624997	      0.00000000	     10.35598120	      0.00000000
     15.00300000	      0.00000000	      0.00000000	      0.00000000	      0.00000000	      0.00000000	      0.00000000	      0.00000000	      0.00000000	      0.00000000	     44.18269221	   1138.05596727	     64.15304374	      2.03057124	      0.00000000	      0.96638019	      0.00000000	     10.30287847	      0.00000000
     15.00400000	      0.00000000	      0.00000000	      0.00000000	      0.00000000	      0.00000000	      0.00000000	      0.00000000	      0.00000000	      0.00000000	     46.06604788	   1127.22486533	     63.04761296	      2.02885392	      0.00000000	      0.96652395	      0.00000000	     10.24065247	      0.00000000
     15.00500000	      0.00000000	      0.00000000	      0.00000000	      0.00000000	      0.00000000	      0.00000000	      0.00000000	      0.00000000	      0.00000000	     47.95096855	   1116.37655524	     61.90289518	      2.02712221	      0.00000000	      0.96667448	      0.00000000	     10.17386484	      0.00000000
     15.00600000	      0.00000000	      0.00000000	      0.00000000	      0.00000000	      0.00000000	      0.00000000	      0.00000000	      0.00000000	      0.00000000	     49.83588921	   1105.52824514	     60.75817740	      2.02539049	      0.00000000	      0.96682501	      0.00000000	     10.10707721	      0.00000000
     15.00700000	      0.00000000	      0.00000000	      0.00000000	      0.00000000	      0.00000000	      0.00000000	      0.00000000	      0.00000000	      0.00000000	     51.72048501	   1094.67822163	     59.57784366	      2.02364211	      0.00000000	      0.96698240	      0.00000000	     10.03551407	      0.00000000
     15.00800000	      0.00000000	      0.00000000	      0.00000000	      0.00000000	      0.00000000	      0.00000000	      0.00000000	      0.00000000	      0.00000000	     53.60443109	   1083.82477129	     58.32627801	      2.02186039	      0.00000000	      0.96715348	      0.00000000	      9.95439992	      0.00000000
     15.00900000	      0.00000000	      0.00000000	      0.00000000	      0.00000000	      0.00000000	      0.00000000	      0.00000000	      0.00000000	      0.00000000	     55.48837718	   1072.97132094	     57.07471235	      2.02007867	      0.00000000	      0.96732456	      0.00000000	      9.87328578	      0.00000000
     15.01000000	      0.00000000	      0.00000000	      0.00000000	      0.00000000	      0.00000000	      0.00000000	      0.00000000	      0.00000000	      0.00000000	     57.37232326	   1062.11787060	     55.82314670	      2.01829695	      0.00000000	      0.96749565	      0.00000000	      9.79217163	      0.00000000
     15.01100000	      0.00000000	      0.00000000	      0.00000000	      0.00000000	      0.00000000	      0.00000000	      0.00000000	      0.00000000	      0.00000000	     59.24582618	   1051.29695699	     54.47826344	      2.01645945	      0.00000000	      0.96768727	      0.00000000	      9.69646941	      0.00000000
     15.01200000	      0.00000000	      0.00000000	      0.00000000	      0.00000000	      0.00000000	      0.00000000	      0.00000000	      0.00000000	      0.00000000	     61.11932909	   1040.47604339	     53.13338018	      2.01462196	      0.00000000	      0.96787889	      0.00000000	      9.60076719	      0.00000000
     15.01300000	      0.00000000	      0.00000000	      0.00000000	      0.00000000	      0.00000000	      0.00000000	      0.00000000	      0.00000000	      0.00000000	     62.99283201	   1029.65512978	     51.78849692	      2.01278446	      0.00000000	      0.96807052	      0.00000000	      9.50506497	      0.00000000
